<mxfile host="app.diagrams.net" modified="2021-06-17T03:26:26.108Z" agent="5.0 (Windows NT 10.0; Win64; x64) AppleWebKit/537.36 (KHTML, like Gecko) Chrome/91.0.4472.101 Safari/537.36" etag="vPTDH6ezCaKRGiFk4Xa_" version="14.7.3" type="github">
  <diagram id="bi0TvyBKPfRKPMvK262e" name="Page-1">
    <mxGraphModel dx="460" dy="752" grid="1" gridSize="10" guides="1" tooltips="1" connect="1" arrows="1" fold="1" page="1" pageScale="1" pageWidth="850" pageHeight="1100" math="0" shadow="0">
      <root>
        <mxCell id="0" />
        <mxCell id="1" parent="0" />
        <mxCell id="Cly2oJLfjkJ_vGrAz5TI-1" value="LR Save Word" style="rounded=0;whiteSpace=wrap;html=1;fillColor=#dae8fc;strokeColor=#6c8ebf;" vertex="1" parent="1">
          <mxGeometry x="100" y="510" width="160" height="50" as="geometry" />
        </mxCell>
        <mxCell id="Cly2oJLfjkJ_vGrAz5TI-2" value="" style="endArrow=classic;html=1;" edge="1" parent="1">
          <mxGeometry width="50" height="50" relative="1" as="geometry">
            <mxPoint x="30" y="590" as="sourcePoint" />
            <mxPoint x="30" y="220" as="targetPoint" />
          </mxGeometry>
        </mxCell>
        <mxCell id="Cly2oJLfjkJ_vGrAz5TI-3" value="Back Chain Word" style="rounded=0;whiteSpace=wrap;html=1;fillColor=#dae8fc;strokeColor=#6c8ebf;" vertex="1" parent="1">
          <mxGeometry x="100" y="560" width="160" height="50" as="geometry" />
        </mxCell>
        <mxCell id="Cly2oJLfjkJ_vGrAz5TI-4" value="对齐padding" style="rounded=0;whiteSpace=wrap;html=1;fillColor=#dae8fc;strokeColor=#6c8ebf;" vertex="1" parent="1">
          <mxGeometry x="100" y="460" width="160" height="50" as="geometry" />
        </mxCell>
        <mxCell id="Cly2oJLfjkJ_vGrAz5TI-5" value="函数参数区域" style="rounded=0;whiteSpace=wrap;html=1;fillColor=#dae8fc;strokeColor=#6c8ebf;" vertex="1" parent="1">
          <mxGeometry x="100" y="410" width="160" height="50" as="geometry" />
        </mxCell>
        <mxCell id="Cly2oJLfjkJ_vGrAz5TI-6" value="本地变量区域" style="rounded=0;whiteSpace=wrap;html=1;fillColor=#dae8fc;strokeColor=#6c8ebf;" vertex="1" parent="1">
          <mxGeometry x="100" y="360" width="160" height="50" as="geometry" />
        </mxCell>
        <mxCell id="Cly2oJLfjkJ_vGrAz5TI-7" value="CR保存区域" style="rounded=0;whiteSpace=wrap;html=1;fillColor=#dae8fc;strokeColor=#6c8ebf;" vertex="1" parent="1">
          <mxGeometry x="100" y="310" width="160" height="50" as="geometry" />
        </mxCell>
        <mxCell id="Cly2oJLfjkJ_vGrAz5TI-9" value="GPR" style="rounded=0;whiteSpace=wrap;html=1;fillColor=#dae8fc;strokeColor=#6c8ebf;" vertex="1" parent="1">
          <mxGeometry x="100" y="260" width="160" height="50" as="geometry" />
        </mxCell>
        <mxCell id="Cly2oJLfjkJ_vGrAz5TI-10" value="FPR" style="rounded=0;whiteSpace=wrap;html=1;fillColor=#dae8fc;strokeColor=#6c8ebf;" vertex="1" parent="1">
          <mxGeometry x="100" y="210" width="160" height="50" as="geometry" />
        </mxCell>
      </root>
    </mxGraphModel>
  </diagram>
</mxfile>
